# xmcd
#
# Track frame offsets:
#	150
#	17572
#	30446
#	44274
#	57458
#	70943
#	80898
#	96469
#	110480
#	125398
#	138632
#	150312
#	163565
#	176948
#	191750
#	204344
#	219083
#	230257
#	245570
#	259509
#
# Disc length: 3646 seconds
#
# Revision: 1
# Processed by: cddbd v1.5.2PL0 Copyright (c) Steve Scherf et al.
# Submitted via: audiograbber 1.83.01
#
DISCID=160e3c14
DTITLE=Blues - Blues, L'intégrale #1
DYEAR=2008
DGENRE=Blues
TTITLE0=John Lee Hooker - Blues Before Sunrise
TTITLE1=John Lee Hooker - She Ain'T Good For Nothing
TTITLE2=John Lee Hooker - I'M So Excited
TTITLE3=John Lee Hooker - Love Blues
TTITLE4=John Lee Hooker - Love Blues
TTITLE5=John Lee Hooker - Run On
TTITLE6=Muddy Waters - Country Blues
TTITLE7=Muddy Waters - I Be'S Troubled
TTITLE8=Muddy Waters - Ramblin' Kid Blues
TTITLE9=Muddy Waters - Jitterbug Blues
TTITLE10=Muddy Waters - Gipsy Woman
TTITLE11=Bessie Smith - After You'Re Gone
TTITLE12=Bessie Smith - Alexander'S Ragtime Band
TTITLE13=Bessie Smith - Back Water Blues
TTITLE14=Bessie Smith - I Won'T Be You
TTITLE15=B. B. King - The Letter
TTITLE16=B. B. King - Long Nights
TTITLE17=B. B. King - That Evil Child
TTITLE18=B. B. King - Guess Who
TTITLE19=B. B. King - Outside Help
EXTD=
EXTT0=
EXTT1=
EXTT2=
EXTT3=
EXTT4=
EXTT5=
EXTT6=
EXTT7=
EXTT8=
EXTT9=
EXTT10=
EXTT11=
EXTT12=
EXTT13=
EXTT14=
EXTT15=
EXTT16=
EXTT17=
EXTT18=
EXTT19=
PLAYORDER=
